<svg xmlns="http://www.w3.org/2000/svg" viewBox="0 0 25.91 25.91"><defs><style> .a { fill: #d73380; } .b { fill: #fff; } </style></defs><title>enjoy</title><circle class="a" cx="12.96" cy="12.96" r="12.96"/><path class="b" d="M1073.21,569.37l-1-.69a0.38,0.38,0,1,0-.43.63l1,0.69A0.38,0.38,0,1,0,1073.21,569.37Z" transform="translate(-1055.91 -561.81)"/><path class="b" d="M1075.2,570.75l-1-.69a0.38,0.38,0,1,0-.43.63l1,0.69a0.37,0.37,0,0,0,.21.07A0.38,0.38,0,0,0,1075.2,570.75Z" transform="translate(-1055.91 -561.81)"/><path class="b" d="M1064.42,570.89l1.18,0.28h0.09a0.38,0.38,0,0,0,.09-0.75l-1.18-.28A0.38,0.38,0,1,0,1064.42,570.89Z" transform="translate(-1055.91 -561.81)"/><path class="b" d="M1066.77,571.44l1.18,0.28H1068a0.38,0.38,0,0,0,.09-0.75h0l-1.18-.28A0.38,0.38,0,0,0,1066.77,571.44Z" transform="translate(-1055.91 -561.81)"/><path class="b" d="M1068.58,572.36l-2.67-.63a0.38,0.38,0,0,0-.17.74L1068,573l-1.88,8-4.28-1,1.88-8,0.82,0.19a0.38,0.38,0,1,0,.17-0.74l-1.19-.28a0.38,0.38,0,0,0-.46.28l-2.06,8.76a0.38,0.38,0,0,0,.28.46l5,1.18h0.09a0.38,0.38,0,0,0,.37-0.29l2.06-8.76A0.38,0.38,0,0,0,1068.58,572.36Z" transform="translate(-1055.91 -561.81)"/><path class="b" d="M1067.14,575.71a0.38,0.38,0,0,0-.38-0.23l-1,.09-0.4-1a0.38,0.38,0,0,0-.72.06l-0.24,1-1,.09a0.38,0.38,0,0,0-.17.7l0.89,0.54-0.24,1a0.38,0.38,0,0,0,.62.37l0.78-.68,0.89,0.54a0.38,0.38,0,0,0,.55-0.47l-0.4-1,0.78-.68A0.38,0.38,0,0,0,1067.14,575.71Zm-1.69,1.15,0.05,0.13-0.11-.07h0a0.46,0.46,0,0,0-.55.12l0-.13a0.38,0.38,0,0,0-.17-0.41l-0.12-.07h0.14a0.46,0.46,0,0,0,.38-0.42l0,0.12A0.41,0.41,0,0,1,1065.44,576.87Z" transform="translate(-1055.91 -561.81)"/><path class="b" d="M1077.93,570.44a0.38,0.38,0,0,0-.16-0.24,0.52,0.52,0,0,1-.17-0.66,0.38,0.38,0,0,0-.12-0.49l-1.5-1a0.38,0.38,0,0,0-.5.06,0.52,0.52,0,0,1-.39.17,0.52,0.52,0,0,1-.3-0.09,0.52,0.52,0,0,1-.17-0.66,0.38,0.38,0,0,0-.12-0.49l-1.5-1a0.38,0.38,0,0,0-.5.06,0.52,0.52,0,0,1-.39.17,0.52,0.52,0,0,1-.3-0.09,0.38,0.38,0,0,0-.53.1l-1.65,2.38h0l-1.77-.42a0.38,0.38,0,0,0-.44.23,0.53,0.53,0,0,1-.61.32,0.52,0.52,0,0,1-.4-0.56,0.38,0.38,0,0,0-.29-0.41l-1.77-.42a0.38,0.38,0,0,0-.44.23,0.53,0.53,0,0,1-.61.32,0.38,0.38,0,0,0-.46.28l-0.44,1.87h0l-2.57,11a0.38,0.38,0,0,0,.28.46,0.52,0.52,0,0,1,.4.56,0.38,0.38,0,0,0,.29.41l1.77,0.42a0.38,0.38,0,0,0,.44-0.23,0.52,0.52,0,0,1,1,.24,0.38,0.38,0,0,0,.29.41l1.77,0.42h0.09a0.38,0.38,0,0,0,.36-0.24,0.52,0.52,0,0,1,.49-0.33h0.1a0.42,0.42,0,0,0,.31,0,0.38,0.38,0,0,0,.17-0.24l0.36-1.52,0.72,0.5a0.39,0.39,0,0,0,.5-0.06,0.52,0.52,0,0,1,.68-0.08,0.38,0.38,0,0,0,.53-0.1l7.5-10.84A0.38,0.38,0,0,0,1077.93,570.44Zm-2.26,1.1a0.38,0.38,0,0,0,.1.53l0.17,0.12-6,8.68a1.28,1.28,0,0,0-1.07.14l-0.73-.51,0.25-1.08,1.19,0.82a0.38,0.38,0,0,0,.53-0.1l3.76-5.44a0.38,0.38,0,1,0-.63-0.43l-3.55,5.13-1.12-.78,0.55-2.33L1070,576l0.63,0.82a0.38,0.38,0,0,0,.3.15l0.13,0a0.38,0.38,0,0,0,.25-0.37l0-1,1-.34a0.38,0.38,0,0,0,0-.72l-1-.3,0-1a0.38,0.38,0,0,0-.69-0.21l-0.59.85-0.26-.08,0.73-3.12,0.31-.45,3.61,2.5-0.46.66a0.38,0.38,0,0,0,.63.43l0.68-1a0.39,0.39,0,0,0-.1-0.53l-4.24-2.93a0.38,0.38,0,0,0-.53.1l-0.09.13a0.52,0.52,0,0,1-.23-0.15l0.59-.85,0.13,0.09,0,0a0.39,0.39,0,0,0,.53-0.1,0.38,0.38,0,0,0-.1-0.53l-0.17-.12,0.69-1a1.28,1.28,0,0,0,1.07-.14l1,0.71a1.28,1.28,0,0,0,1.94,1.34l1,0.71a1.29,1.29,0,0,0,.25,1l-0.69,1-0.17-.12A0.38,0.38,0,0,0,1075.67,571.53Zm-7.18,4.08v0l-0.35,1.51-0.36,1.54h0l-0.44,1.88-0.41,1.74a1.28,1.28,0,0,0-.94.52l-1.22-.29a1.28,1.28,0,0,0-2.3-.54l-1.22-.29a1.29,1.29,0,0,0-.61-0.89l2.41-10.28,0.2,0h0.09a0.38,0.38,0,0,0,.09-0.75l-0.2,0,0.28-1.18a1.28,1.28,0,0,0,.94-0.52l1.22,0.29a1.28,1.28,0,0,0,2.3.54l1.22,0.29h0v0a1.3,1.3,0,0,0,.61.85l-0.28,1.18-0.2,0a0.38,0.38,0,1,0-.17.74l0.2,0-0.84,3.57h0Zm2-1.3v0.13a0.46,0.46,0,0,0,.39.4l-0.12,0a0.38,0.38,0,0,0-.25.37v0.14l-0.08-.11h0a0.38,0.38,0,0,0-.43-0.13l-0.12,0a0.45,0.45,0,0,0,.05-0.56l-0.09-.11,0.14,0A0.46,0.46,0,0,0,1070.53,574.31Z" transform="translate(-1055.91 -561.81)"/></svg> 
