<svg xmlns="http://www.w3.org/2000/svg" viewBox="0 0 25.91 25.91"><defs><style>.a{fill:#006533;}.b{fill:#fff;}</style></defs><title>hosting</title><circle class="a" cx="12.96" cy="12.96" r="12.96"/><path class="b" d="M970.24,580.42H959a1.44,1.44,0,0,1-1.4-1.4v-4.68a0.44,0.44,0,0,0-.47-0.47H956.2a0.51,0.51,0,0,1-.47-0.28,0.48,0.48,0,0,1,.19-0.56l7.87-6.09a1.4,1.4,0,0,1,1.69,0l7.87,6.09a0.6,0.6,0,0,1,.19.56,0.51,0.51,0,0,1-.47.28h-0.94a0.44,0.44,0,0,0-.47.47V579A1.44,1.44,0,0,1,970.24,580.42Zm-12.73-7.49a1.5,1.5,0,0,1,1,1.31v4.68a0.44,0.44,0,0,0,.47.47h11.24a0.44,0.44,0,0,0,.47-0.47v-4.68a1.32,1.32,0,0,1,1-1.31l-6.84-5.34a0.6,0.6,0,0,0-.56,0Z" transform="translate(-951.65 -561.81)"/><path class="b" d="M966,579.95v-4.68a0.44,0.44,0,0,0-.47-0.47h-1.87a0.44,0.44,0,0,0-.47.47v4.68h-0.94v-4.68a1.44,1.44,0,0,1,1.4-1.4h1.87a1.44,1.44,0,0,1,1.4,1.4v4.68H966Z" transform="translate(-951.65 -561.81)"/></svg>