<svg xmlns="http://www.w3.org/2000/svg" viewBox="0 0 25.91 25.91"><defs><style>.a{fill:#1d71b6;}.b{fill:#fff;}</style></defs><title>innovate</title><circle class="a" cx="12.96" cy="12.96" r="12.96"/><path class="b" d="M1032.53,581.72a0.29,0.29,0,1,1,0-.58h3.36a0.29,0.29,0,0,1,0,.58h-3.36Z" transform="translate(-1021.25 -561.81)"/><path class="b" d="M1032.9,582.86a0.29,0.29,0,0,1,0-.58h2.61a0.29,0.29,0,1,1,0,.58h-2.61Z" transform="translate(-1021.25 -561.81)"/><path class="b" d="M1033.93,578.87a0.29,0.29,0,0,1-.57,0,15.25,15.25,0,0,0-.2-3,8.52,8.52,0,0,0-1-2.55,0.29,0.29,0,0,1,.5-0.28,9.06,9.06,0,0,1,1.05,2.72A15.79,15.79,0,0,1,1033.93,578.87Z" transform="translate(-1021.25 -561.81)"/><path class="b" d="M1035.05,578.87a0.29,0.29,0,0,1-.57,0,15.79,15.79,0,0,1,.21-3.08,9.06,9.06,0,0,1,1.05-2.72,0.29,0.29,0,0,1,.5.28,8.52,8.52,0,0,0-1,2.55A15.25,15.25,0,0,0,1035.05,578.87Z" transform="translate(-1021.25 -561.81)"/><path class="b" d="M1032.33,573.49a0.29,0.29,0,1,1,.18-0.55,3.73,3.73,0,0,1,.54.23h0a0.58,0.58,0,0,0,.61.1L1034,573a0.29,0.29,0,1,1,.36.45l-0.35.29a1,1,0,0,1-1.24,0h0A3.22,3.22,0,0,0,1032.33,573.49Z" transform="translate(-1021.25 -561.81)"/><path class="b" d="M1034.5,566.94a0.29,0.29,0,0,1-.58,0v-1.12a0.29,0.29,0,0,1,.58,0v1.12Z" transform="translate(-1021.25 -561.81)"/><path class="b" d="M1035.91,572.94a0.29,0.29,0,0,1,.18.55,3.27,3.27,0,0,0-.45.2h0a1,1,0,0,1-1.24,0l-0.35-.29a0.29,0.29,0,1,1,.36-0.45l0.35,0.29a0.58,0.58,0,0,0,.61-0.1h0A3.7,3.7,0,0,1,1035.91,572.94Z" transform="translate(-1021.25 -561.81)"/><path class="b" d="M1037.84,570a5.13,5.13,0,0,1,.52,6.66,18.18,18.18,0,0,1-1.29,1.57,2.33,2.33,0,0,0-.86,1.93,0.29,0.29,0,0,1-.29.29h-3.38a0.29,0.29,0,0,1-.29-0.29,2.31,2.31,0,0,0-.87-1.91h0a17.36,17.36,0,0,1-1.31-1.59,5.13,5.13,0,0,1-.6-5h0a5.14,5.14,0,0,1,2.78-2.77h0a5.13,5.13,0,0,1,5.6,1.11h0Zm0.93,3.63a4.56,4.56,0,0,0-6.3-4.21h0a4.59,4.59,0,0,0-2.46,2.46v0a4.56,4.56,0,0,0,.53,4.43,17,17,0,0,0,1.28,1.54h0a2.74,2.74,0,0,1,1,2h2.82a2.76,2.76,0,0,1,1-2,17.53,17.53,0,0,0,1.26-1.53A4.55,4.55,0,0,0,1038.77,573.65Z" transform="translate(-1021.25 -561.81)"/><path class="b" d="M1033.27,584a0.29,0.29,0,0,1,0-.58h1.86a0.29,0.29,0,0,1,0,.58h-1.86Z" transform="translate(-1021.25 -561.81)"/><path class="b" d="M1037.75,568a0.29,0.29,0,1,1-.5-0.29l0.56-1a0.29,0.29,0,0,1,.5.29Z" transform="translate(-1021.25 -561.81)"/><path class="b" d="M1031.16,567.68a0.29,0.29,0,1,1-.5.29l-0.56-1a0.29,0.29,0,0,1,.5-0.29Z" transform="translate(-1021.25 -561.81)"/><path class="b" d="M1028.65,570a0.29,0.29,0,0,1-.29.5l-1-.56a0.29,0.29,0,1,1,.29-0.5Z" transform="translate(-1021.25 -561.81)"/><path class="b" d="M1040.05,570.48a0.29,0.29,0,0,1-.29-0.5l1-.56a0.29,0.29,0,1,1,.29.5Z" transform="translate(-1021.25 -561.81)"/><path class="b" d="M1031.21,574.79a0.29,0.29,0,0,1-.53.22,3.79,3.79,0,0,1-.22-0.73,3.88,3.88,0,0,1-.08-0.76,0.29,0.29,0,1,1,.58,0,3.28,3.28,0,0,0,.06.65,3.21,3.21,0,0,0,.19.62h0Zm0-2.54a0.29,0.29,0,0,1-.53-0.22,3.85,3.85,0,0,1,.35-0.65h0a3.81,3.81,0,0,1,1-1h0a3.81,3.81,0,0,1,.65-0.35,3.76,3.76,0,0,1,.73-0.22,3.85,3.85,0,0,1,.76-0.08,0.29,0.29,0,1,1,0,.58,3.32,3.32,0,0,0-.65.06,3.18,3.18,0,0,0-.62.19,3.25,3.25,0,0,0-.55.3h0a3.3,3.3,0,0,0-.88.88h0A3.25,3.25,0,0,0,1031.21,572.26Z" transform="translate(-1021.25 -561.81)"/></svg>