<svg xmlns="http://www.w3.org/2000/svg" viewBox="0 0 25.91 25.91"><defs><style>.a{fill:#f19125;}.b{fill:#fff;}</style></defs><title>learn</title><circle class="a" cx="12.96" cy="12.96" r="12.96"/><path class="b" d="M1008.46,570.17l-8-2.93a3.92,3.92,0,0,0-2.7,0l-7.47,2.89a1.54,1.54,0,0,0,0,2.89l8,2.93a4.26,4.26,0,0,0,1.33.23,2.93,2.93,0,0,0,1.28-.28l1.83-.69a0.46,0.46,0,1,0-.32-0.87l-1.83.69a2.91,2.91,0,0,1-2,0l-8-2.89a0.6,0.6,0,0,1-.41-0.55,0.65,0.65,0,0,1,.41-0.6l7.47-2.84a2.91,2.91,0,0,1,2.06,0l8,2.93a0.46,0.46,0,0,1,.41.5,0.63,0.63,0,0,1-.46.6l-3.21,1.24-4.86-2a1.1,1.1,0,0,0-.87-0.32,0.85,0.85,0,0,0-.92.46,0.81,0.81,0,0,0,.82.46l5.36,2.15v5.68a1.34,1.34,0,0,0-.92,1.28,1.38,1.38,0,1,0,2.75,0,1.32,1.32,0,0,0-.73-1.19,9.6,9.6,0,0,0,1-.73,0.5,0.5,0,0,0,.14-0.32v-3.67a0.46,0.46,0,1,0-.92,0v3.44a1.65,1.65,0,0,1-.46.32v-4.77l3.07-1.15a1.57,1.57,0,0,0,1.05-1.47A1.45,1.45,0,0,0,1008.46,570.17Zm-3.12,11a0.46,0.46,0,1,1-.46-0.46A0.43,0.43,0,0,1,1005.34,581.21Z" transform="translate(-986.4 -561.81)"/><path class="b" d="M1002.54,580.76a0.39,0.39,0,0,0-.5-0.32,11.06,11.06,0,0,1-9.08-1.74v-3.44a0.46,0.46,0,0,0-.92,0v3.67a0.36,0.36,0,0,0,.14.32,11.85,11.85,0,0,0,7.2,2.43,12.72,12.72,0,0,0,2.84-.37A0.44,0.44,0,0,0,1002.54,580.76Z" transform="translate(-986.4 -561.81)"/></svg>