<svg xmlns="http://www.w3.org/2000/svg" viewBox="0 0 25.91 25.91"><defs><style>.a{fill:#3f4e55;}.b{fill:#fff;}</style></defs><title>life</title><circle class="a" cx="12.96" cy="12.96" r="12.96"/><path class="b" d="M1140.47,583.08a1.36,1.36,0,0,1-1.36-1.36l0.39-8.26c-1.15-.43-1.82-1.68-1.82-3.38,0-2,1.25-3.55,2.79-3.55s2.79,1.59,2.79,3.55c0,1.71-.68,3-1.82,3.38l0.39,8.25A1.37,1.37,0,0,1,1140.47,583.08Zm0-16c-1.25,0-2.26,1.36-2.26,3s0.61,2.66,1.64,2.94a0.26,0.26,0,0,1,.19.27l-0.4,8.45a0.84,0.84,0,0,0,1.67,0l-0.4-8.44a0.26,0.26,0,0,1,.19-0.27c1-.29,1.64-1.39,1.64-2.94S1141.72,567,1140.47,567Z" transform="translate(-1124.28 -561.81)"/><path class="b" d="M1134,583.08a1.36,1.36,0,0,1-1.36-1.36l0.39-8.27a2.76,2.76,0,0,1-1.82-2.58v-4.09a0.26,0.26,0,0,1,.26-0.26h1.18a0.26,0.26,0,0,1,.26.26v3.53h0.29v-3.53a0.26,0.26,0,0,1,.26-0.26h1.06a0.26,0.26,0,0,1,.26.26v3.53h0.29v-3.53a0.26,0.26,0,0,1,.26-0.26h1.18a0.26,0.26,0,0,1,.26.26v4.09a2.76,2.76,0,0,1-1.82,2.58l0.39,8.26A1.37,1.37,0,0,1,1134,583.08Zm-2.26-16v3.82a2.23,2.23,0,0,0,1.64,2.14,0.26,0.26,0,0,1,.19.27l-0.4,8.46a0.84,0.84,0,0,0,1.67,0l-0.4-8.44a0.26,0.26,0,0,1,.19-0.27,2.23,2.23,0,0,0,1.64-2.14V567h-0.65v3.53a0.26,0.26,0,0,1-.26.26h-0.82a0.26,0.26,0,0,1-.26-0.26V567h-0.53v3.53a0.26,0.26,0,0,1-.26.26h-0.82a0.26,0.26,0,0,1-.26-0.26V567h-0.65Z" transform="translate(-1124.28 -561.81)"/></svg>