<svg xmlns="http://www.w3.org/2000/svg" viewBox="0 0 25.91 25.91"><defs><style>.a{fill:#e74e1b;}.b{fill:#fff;}</style></defs><title>social</title><circle class="a" cx="12.96" cy="12.96" r="12.96"/><path class="b" d="M1099.56,577.51a1.17,1.17,0,0,0,1.14-.88l0.62,0.62a1.18,1.18,0,1,0,1.67-1.68l-0.53-.53a1.18,1.18,0,0,0,.53-2l-0.74-.74a1.18,1.18,0,0,0,.53-2l-2.1-2.1v-2a0.3,0.3,0,0,0-.59,0v1.58a1.22,1.22,0,0,0-1.29.25,1.18,1.18,0,0,0-.22,1.36,1.15,1.15,0,0,0-.62.32,1.18,1.18,0,0,1-.84,1.67,1.18,1.18,0,0,1-.84,1.68,1.18,1.18,0,0,0,0,1.68l2.43,2.43A1.18,1.18,0,0,0,1099.56,577.51Zm-0.33-9.06a0.59,0.59,0,0,1,.84,0l0.12,0.12,2.19,2.19a0.59,0.59,0,0,1,0,.84,0.61,0.61,0,0,1-.84,0l-2.3-2.3A0.59,0.59,0,0,1,1099.23,568.45Zm-0.84,1.68a0.59,0.59,0,0,1,.84,0l3.35,3.35a0.59,0.59,0,0,1,0,.84,0.61,0.61,0,0,1-.84,0l-1.3-1.3-1.63-1.63h0l-0.42-.42A0.59,0.59,0,0,1,1098.39,570.13Zm-0.84,1.67a0.59,0.59,0,0,1,.84,0l1.63,1.63,2.56,2.56a0.59,0.59,0,0,1,0,.84,0.61,0.61,0,0,1-.84,0l-1.34-1.34h0l-1.21-1.21-1.63-1.63A0.59,0.59,0,0,1,1097.55,571.81Zm-1,2.09a0.59,0.59,0,0,1,1-.42l0.17,0.17,2.26,2.26a0.59,0.59,0,0,1,0,.84,0.61,0.61,0,0,1-.84,0l-2.43-2.43A0.59,0.59,0,0,1,1096.54,573.9Z" transform="translate(-1090.66 -561.81)"/><path class="b" d="M1109,573.32a0.3,0.3,0,1,0,.59,0,6.67,6.67,0,0,0-1.43-4.16,2.24,2.24,0,0,1-.35-0.58v-2.37a0.3,0.3,0,0,0-.59,0v2.37a1.82,1.82,0,0,0,.46.92A6.07,6.07,0,0,1,1109,573.32Z" transform="translate(-1090.66 -561.81)"/><path class="b" d="M1100.39,582.5a0.3,0.3,0,0,0-.3.3v0.59a0.3,0.3,0,0,0,.59,0v-0.59A0.3,0.3,0,0,0,1100.39,582.5Z" transform="translate(-1090.66 -561.81)"/><path class="b" d="M1108.24,573.66c-0.7-.46-2.88-1.73-3-1.8a0.62,0.62,0,0,0-.62,0,1.91,1.91,0,0,0-.7,1.41,1.74,1.74,0,0,0,.82,1.28c0.15,0.13.3,0.26,0.45,0.41l1.48,1.48a1.9,1.9,0,0,1,.2.22,0.87,0.87,0,0,1,0,.14,7.4,7.4,0,0,1-1.09,1.28l-3.27,3a0.74,0.74,0,0,1-.38.21h-2.67a0.59,0.59,0,0,1,0-1.18h2.07a1.3,1.3,0,0,0,.8-0.38l2.07-2.07a0.3,0.3,0,0,0-.42-0.42l-2.07,2.07a0.74,0.74,0,0,1-.38.21h-3a0.59,0.59,0,1,1,0-1.18H1101a0.3,0.3,0,1,0,0-.59h-3.26a0.59,0.59,0,0,1-.44-1,0.3,0.3,0,1,0-.44-0.4,2.19,2.19,0,0,1,.59,2.57,1.17,1.17,0,0,1,.89,1.78,1.19,1.19,0,0,0,1.18,1.18h2.67a1.29,1.29,0,0,0,.79-0.37l3.27-3c1.27-1.27,1.27-1.59,1.27-1.69a0.86,0.86,0,0,0-.38-0.8l-1.48-1.48c-0.17-.17-0.33-0.31-0.48-0.44a1.25,1.25,0,0,1-.62-0.83,1.31,1.31,0,0,1,.44-0.93s2.26,1.31,2.95,1.77a3.34,3.34,0,0,1,1.65,3c0,1.27-1,3-1.66,4.13a4.16,4.16,0,0,0-.7,1.49v0.59a0.3,0.3,0,1,0,.59,0V582.8a6.69,6.69,0,0,1,.62-1.2c0.73-1.27,1.74-3,1.74-4.43A3.93,3.93,0,0,0,1108.24,573.66Z" transform="translate(-1090.66 -561.81)"/></svg>